<?xml version="1.0" encoding="utf-8"?><svg version="1.1" id="aLogo" xmlns="http://www.w3.org/2000/svg" x="0" y="0" viewBox="0 0 142.5 55" xml:space="preserve" width="142.5" height="55"><style>.ast0{fill-rule:evenodd;clip-rule:evenodd;fill:#f4f5f9}.ast1{fill:none;stroke:#f4f5f9;stroke-width:3}.ast2{enable-background:new}.ast3{fill:#4a4c55}.ast4{fill:#f1ebe7}</style><path class="ast0" d="M0 0h51.7v55H0V0z"/><path id="aRectangle_1_copy" class="ast1" d="M42 1.5h99v52H42v-52z"/><g class="ast2"><path class="ast3" d="M17.6 16h7.9c3.6 0 6.2.5 7.9 1.6 1.6 1 2.5 2.7 2.5 4.9 0 1.5-.4 2.8-1.1 3.8-.7 1-1.7 1.6-2.9 1.8v.2c1.6.4 2.8 1 3.5 2 .7 1 1.1 2.3 1.1 4 0 2.3-.8 4.2-2.5 5.5s-4 2-6.9 2h-9.6V16h.1zM23 26.1h3.1c1.5 0 2.5-.2 3.2-.7s1-1.2 1-2.3c0-1-.4-1.7-1.1-2.1s-1.8-.6-3.4-.6H23v5.7zm0 4.4v6.7h3.5c1.5 0 2.6-.3 3.3-.9s1.1-1.5 1.1-2.6c0-2.1-1.5-3.2-4.5-3.2H23z"/></g><g class="ast2"><path class="ast4" d="M65.3 41.1V15.4h1.8v25.7h-1.8zM92.9 41.1h-1.8L76 18.3h-.1c.1 2.7.2 4.8.2 6.2v16.7h-1.7V15.4h1.8l15.1 22.8h.1c-.1-2.1-.2-4.1-.2-6V15.4h1.7v25.7zM121.6 28.2c0 4.1-1 7.3-3 9.7s-4.8 3.6-8.4 3.6-6.3-1.2-8.4-3.6c-2-2.4-3-5.6-3-9.7s1-7.3 3.1-9.7 4.8-3.5 8.4-3.5 6.4 1.2 8.4 3.5 2.9 5.6 2.9 9.7zm-20.9 0c0 3.7.8 6.5 2.4 8.5s4 3 7 3c3.1 0 5.4-1 7-3s2.4-4.8 2.4-8.6c0-3.7-.8-6.5-2.4-8.5s-4-3-7-3-5.4 1-7 3-2.4 4.9-2.4 8.6z"/></g></svg>